<svg xmlns="http://www.w3.org/2000/svg" xmlns:svg="http://www.w3.org/2000/svg" xmlns:xlink="http://www.w3.org/1999/xlink" id="svg2" width="51.102" height="51.102" version="1.1" viewBox="0 0 47.909 47.909"><defs id="defs4"><marker id="DistanceStart" orient="auto" refX="0" refY="0" style="overflow:visible"><g id="g2300"><path id="path2306" d="M 0,0 2,0" style="fill:none;stroke:#fff;stroke-width:1.14999998;stroke-linecap:square"/><path id="path2302" d="M 0,0 13,4 9,0 13,-4 0,0 Z" style="fill:#000;fill-rule:evenodd;stroke:none"/><path id="path2304" d="M 0,-4 0,40" style="fill:none;stroke:#000;stroke-width:1;stroke-linecap:square"/></g></marker><linearGradient id="G3" x1="14.66" x2="24.031" y1="7.024" y2="34.826" gradientUnits="userSpaceOnUse"><stop id="s3" offset="0" stop-color="#fcf9fb"/><stop id="s4" offset="1" stop-color="#fcf9fb" stop-opacity="0"/></linearGradient><radialGradient id="R0" cx="28.935" cy="32.797" r="22" fx="28.935" fy="32.797" gradientTransform="matrix(1,-0.2,0.2,1,-3.8,6.8)" gradientUnits="userSpaceOnUse"><stop id="s1" offset="0" stop-color="#e6cf00"/><stop id="s2" offset="1" stop-color="#fde94a"/></radialGradient><radialGradient id="R1" cx="17.312" cy="25.531" r="9.688" gradientTransform="matrix(2.4,0,0,0.67,-17.1,22.4)" gradientUnits="userSpaceOnUse"><stop id="s5" offset="0" stop-opacity=".63"/><stop id="s6" offset="1" stop-opacity="0"/></radialGradient><linearGradient id="linearGradient2995" x1="14.66" x2="24.031" y1="7.024" y2="34.826" gradientTransform="matrix(0.31170768,-0.14537193,0.14537193,0.31170768,-216.07743,565.35148)" gradientUnits="userSpaceOnUse" xlink:href="#G3"/><radialGradient id="radialGradient3011" cx="28.935" cy="32.797" r="22" fx="28.935" fy="32.797" gradientTransform="matrix(1,-0.2,0.2,1,78.2,6.8)" gradientUnits="userSpaceOnUse" xlink:href="#R0"/><radialGradient id="radialGradient3018-9" cx="28.935" cy="32.797" r="22" fx="28.935" fy="32.797" gradientTransform="matrix(1,-0.2,0.2,1,78.2,6.8)" gradientUnits="userSpaceOnUse" xlink:href="#R0-4"/><radialGradient id="R0-4" cx="28.935" cy="32.797" r="22" fx="28.935" fy="32.797" gradientTransform="matrix(1,-0.2,0.2,1,-3.8,6.8)" gradientUnits="userSpaceOnUse"><stop id="s1-8" offset="0" stop-color="#e6cf00"/><stop id="s2-8" offset="1" stop-color="#fde94a"/></radialGradient><radialGradient id="radialGradient3028-2" cx="28.935" cy="32.797" r="22" fx="28.935" fy="32.797" gradientTransform="matrix(1,-0.2,0.2,1,78.2,6.8)" gradientUnits="userSpaceOnUse" xlink:href="#R0-45"/><radialGradient id="R0-45" cx="28.935" cy="32.797" r="22" fx="28.935" fy="32.797" gradientTransform="matrix(1,-0.2,0.2,1,-3.8,6.8)" gradientUnits="userSpaceOnUse"><stop id="s1-5" offset="0" stop-color="#e6cf00"/><stop id="s2-1" offset="1" stop-color="#fde94a"/></radialGradient><radialGradient id="radialGradient3986" cx="28.935" cy="32.797" r="22" fx="28.935" fy="32.797" gradientTransform="matrix(1,-0.2,0.2,1,78.2,6.8)" gradientUnits="userSpaceOnUse" xlink:href="#R0-45"/><radialGradient id="radialGradient3986-5" cx="28.935" cy="32.797" r="22" fx="28.935" fy="32.797" gradientTransform="matrix(1,-0.2,0.2,1,78.2,6.8)" gradientUnits="userSpaceOnUse" xlink:href="#R0-45-7"/><radialGradient id="R0-45-7" cx="28.935" cy="32.797" r="22" fx="28.935" fy="32.797" gradientTransform="matrix(1,-0.2,0.2,1,-3.8,6.8)" gradientUnits="userSpaceOnUse"><stop id="s1-5-6" offset="0" stop-color="#e6cf00"/><stop id="s2-1-1" offset="1" stop-color="#fde94a"/></radialGradient><radialGradient id="radialGradient4007" cx="28.935" cy="32.797" r="22" fx="28.935" fy="32.797" gradientTransform="matrix(1,-0.2,0.2,1,78.2,6.8)" gradientUnits="userSpaceOnUse" xlink:href="#R0-45-7"/><radialGradient id="radialGradient3986-5-2" cx="28.935" cy="32.797" r="22" fx="28.935" fy="32.797" gradientTransform="matrix(1,-0.2,0.2,1,78.2,6.8)" gradientUnits="userSpaceOnUse" xlink:href="#R0-45-7-7"/><radialGradient id="R0-45-7-7" cx="28.935" cy="32.797" r="22" fx="28.935" fy="32.797" gradientTransform="matrix(1,-0.2,0.2,1,-3.8,6.8)" gradientUnits="userSpaceOnUse"><stop id="s1-5-6-9" offset="0" stop-color="#e6cf00"/><stop id="s2-1-1-5" offset="1" stop-color="#fde94a"/></radialGradient><radialGradient id="radialGradient4041" cx="28.935" cy="32.797" r="22" fx="28.935" fy="32.797" gradientTransform="matrix(1,-0.2,0.2,1,78.2,6.8)" gradientUnits="userSpaceOnUse" xlink:href="#R0-45-7-7"/><radialGradient id="radialGradient4065" cx="28.935" cy="32.797" r="22" fx="28.935" fy="32.797" gradientTransform="matrix(1,-0.2,0.2,1,78.2,6.8)" gradientUnits="userSpaceOnUse" xlink:href="#R0-45"/><radialGradient id="radialGradient4065-4" cx="28.935" cy="32.797" r="22" fx="28.935" fy="32.797" gradientTransform="matrix(1,-0.2,0.2,1,78.2,6.8)" gradientUnits="userSpaceOnUse" xlink:href="#R0-45-3"/><radialGradient id="R0-45-3" cx="28.935" cy="32.797" r="22" fx="28.935" fy="32.797" gradientTransform="matrix(1,-0.2,0.2,1,-3.8,6.8)" gradientUnits="userSpaceOnUse"><stop id="s1-5-1" offset="0" stop-color="#e6cf00"/><stop id="s2-1-2" offset="1" stop-color="#fde94a"/></radialGradient><radialGradient id="radialGradient4113" cx="28.935" cy="32.797" r="22" fx="28.935" fy="32.797" gradientTransform="matrix(1.0439725,-0.20879451,0.20879451,1.0439725,-147.8058,553.72738)" gradientUnits="userSpaceOnUse" xlink:href="#R0-45-7-7"/><radialGradient id="radialGradient4117" cx="28.935" cy="32.797" r="22" fx="28.935" fy="32.797" gradientTransform="matrix(1,-0.2,0.2,1,78.2,6.8)" gradientUnits="userSpaceOnUse" xlink:href="#R0-45"/><radialGradient id="radialGradient4120" cx="28.935" cy="32.797" r="22" fx="28.935" fy="32.797" gradientTransform="matrix(0.61925922,-1.4303233,1.4303233,0.61925922,-39.346374,44.502008)" gradientUnits="userSpaceOnUse" xlink:href="#R0-45"/></defs><metadata id="metadata7"/><g id="layer1" transform="translate(229.66854,-548.40793)"><path id="hl" d="m -206.82877,565.402 2.03199,0.91795 c 1.54237,0.71307 0.75483,0.33719 2.36782,1.12659 -4.12683,1.94063 -0.28812,2.61772 -4.43562,5.1369 l 0.0102,-0.70185 c 0.0502,-4.01163 -0.32955,1.92558 0.0256,-6.47959 z" style="opacity:.8;fill:url(#linearGradient2995)"/><circle id="path3932" cx="-205.714" cy="572.362" r="22.954" style="color:#000;display:inline;overflow:visible;visibility:visible;fill:url(#radialGradient4113);fill-opacity:1;fill-rule:nonzero;stroke:#000;stroke-width:2;stroke-linecap:butt;stroke-linejoin:miter;stroke-miterlimit:4;stroke-dasharray:none;stroke-dashoffset:0;stroke-opacity:1;marker:none;enable-background:accumulate"/><circle id="path4067" cx="-205.714" cy="572.362" r="20.743" style="color:#000;display:inline;overflow:visible;visibility:visible;opacity:.68999999;fill:none;stroke:#fff;stroke-width:2.53080082;stroke-linecap:butt;stroke-linejoin:miter;stroke-miterlimit:4;stroke-dasharray:none;stroke-dashoffset:0;stroke-opacity:1;marker:none;enable-background:accumulate"/><flowRoot style="font-style:normal;font-variant:normal;font-weight:400;font-stretch:normal;font-size:22.5px;line-height:125%;font-family:Arial;-inkscape-font-specification:Arial;text-align:center;letter-spacing:2.72000003px;word-spacing:0;text-anchor:middle;fill:#000;fill-opacity:1;stroke:none;stroke-width:1px;stroke-linecap:butt;stroke-linejoin:miter;stroke-opacity:1" id="flowRoot3379" transform="translate(-229.71429,548.3622)" xml:space="preserve"><flowRegion id="flowRegion3381"><rect style="font-size:22.5px" id="rect3383" width="28.986" height="29.11" x="10.034" y="12.077"/></flowRegion><flowPara id="flowPara3385"/></flowRoot><g id="layer1-2" transform="matrix(0.03231979,0,0,0.03231979,-180.85582,575.47438)"><g id="g11676" transform="matrix(0,-17.254,17.254,0,10443,-2252.9)"><path transform="translate(1.1045,-949.48)" style="color:#000" id="path11666" d="m -134.38,309.5 c 0,4.1683 -3.3791,7.5474 -7.5474,7.5474 -4.1683,0 -7.5474,-3.3791 -7.5474,-7.5474 0,-4.1683 3.3791,-7.5474 7.5474,-7.5474 4.1683,0 7.5474,3.3791 7.5474,7.5474 z"/><path transform="translate(32.767,-949.48)" style="color:#000" id="path11668" d="m -134.38,309.5 c 0,4.1683 -3.3791,7.5474 -7.5474,7.5474 -4.1683,0 -7.5474,-3.3791 -7.5474,-7.5474 0,-4.1683 3.3791,-7.5474 7.5474,-7.5474 4.1683,0 7.5474,3.3791 7.5474,7.5474 z"/><path transform="translate(16.936,-976.35)" style="color:#000" id="path11670" d="m -134.38,309.5 c 0,4.1683 -3.3791,7.5474 -7.5474,7.5474 -4.1683,0 -7.5474,-3.3791 -7.5474,-7.5474 0,-4.1683 3.3791,-7.5474 7.5474,-7.5474 4.1683,0 7.5474,3.3791 7.5474,7.5474 z"/><rect id="rect11672" width="27.692" height="3" x="488.22" y="-443.73" transform="matrix(0.49998488,-0.86603413,0.86603413,0.49998488,0,0)" style="color:#000"/><rect id="rect11674" width="27.692" height="3" x="613.16" y="-226.9" transform="matrix(-0.5,-0.86603,-0.86603,0.5,0,0)" style="color:#000"/></g></g></g></svg>