<svg xmlns="http://www.w3.org/2000/svg" xmlns:xlink="http://www.w3.org/1999/xlink" width="666" height="666" baseProfile="full" version="1.1" viewbox="0 0 666 666"><style>#outline{fill:none}.point{fill:#111}#outline,.ray{stroke:#111;stroke-width:31.66235665441778}#background{fill:#fcfcfc;stroke:none}#pupil{fill:#a518c9}</style><g transform="translate(333, 333)"><circle id="background" r="333"/><circle id="outline" r="164.644"/><circle id="pupil" r="25.615"/><line x1="250.107" x2="51.231" y1="0" y2="0" class="ray"/><line x1="176.852" x2="36.226" y1="176.852" y2="36.226" class="ray"/><line x1="0" x2="0" y1="250.107" y2="51.231" class="ray"/><line x1="-176.852" x2="-36.226" y1="176.852" y2="36.226" class="ray"/><line x1="-250.107" x2="-51.231" y1="0" y2="0" class="ray"/><line x1="-176.852" x2="-36.226" y1="-176.852" y2="-36.226" class="ray"/><line x1="0" x2="0" y1="-250.107" y2="-51.231" class="ray"/><line x1="176.852" x2="36.226" y1="-176.852" y2="-36.226" class="ray"/><path d="M 264.493552 -52.611039 L 333.000000 0.000000 L 264.493552 52.611039 Z" class="point"/><path d="M 224.226806 149.823562 L 235.466558 235.466558 L 149.823562 224.226806 Z" class="point"/><path d="M 52.611039 264.493552 L 0.000000 333.000000 L -52.611039 264.493552 Z" class="point"/><path d="M -149.823562 224.226806 L -235.466558 235.466558 L -224.226806 149.823562 Z" class="point"/><path d="M -264.493552 52.611039 L -333.000000 0.000000 L -264.493552 -52.611039 Z" class="point"/><path d="M -224.226806 -149.823562 L -235.466558 -235.466558 L -149.823562 -224.226806 Z" class="point"/><path d="M -52.611039 -264.493552 L -0.000000 -333.000000 L 52.611039 -264.493552 Z" class="point"/><path d="M 149.823562 -224.226806 L 235.466558 -235.466558 L 224.226806 -149.823562 Z" class="point"/></g></svg>